<mxfile host="65bd71144e">
    <diagram id="hXWEJYTh561vb1qXt9K1" name="Page-1">
        <mxGraphModel dx="925" dy="692" grid="1" gridSize="10" guides="1" tooltips="1" connect="1" arrows="1" fold="1" page="1" pageScale="1" pageWidth="827" pageHeight="1169" math="0" shadow="0">
            <root>
                <mxCell id="0"/>
                <mxCell id="1" parent="0"/>
                <mxCell id="13" value="" style="group" parent="1" vertex="1" connectable="0">
                    <mxGeometry x="350" y="30" width="200" height="250" as="geometry"/>
                </mxCell>
                <mxCell id="14" value="&lt;font color=&quot;#ffffff&quot;&gt;Atelier3.&lt;span style=&quot;caret-color: rgb(0, 0, 0); font-family: -webkit-standard; font-size: medium; text-align: start;&quot;&gt;Plateau&lt;/span&gt;&amp;nbsp;&amp;lt;&amp;lt; abstract&amp;nbsp;&amp;gt;&amp;gt;&lt;/font&gt;" style="rounded=0;whiteSpace=wrap;html=1;" parent="13" vertex="1">
                    <mxGeometry width="200" height="60" as="geometry"/>
                </mxCell>
                <mxCell id="29" value="" style="edgeStyle=none;html=1;fontColor=#FFFFFF;" parent="13" source="15" target="16" edge="1">
                    <mxGeometry relative="1" as="geometry"/>
                </mxCell>
                <mxCell id="15" value="&lt;span style=&quot;caret-color: rgb(0, 0, 0); text-align: start;&quot; id=&quot;docs-internal-guid-3d2f0bbc-7fff-59de-1f52-881cc61e7f1f&quot;&gt;&lt;div&gt;&lt;/div&gt;&lt;span style=&quot;color: rgb(255, 255, 255); background-color: initial;&quot;&gt;-cases : List&amp;lt;Case&amp;gt;&lt;/span&gt;&lt;br&gt;&lt;/span&gt;" style="rounded=0;whiteSpace=wrap;html=1;" parent="13" vertex="1">
                    <mxGeometry y="60.336956521739125" width="200" height="57.96739130434782" as="geometry"/>
                </mxCell>
                <mxCell id="16" value="&lt;span style=&quot;caret-color: rgb(0, 0, 0); text-align: start;&quot; id=&quot;docs-internal-guid-7a3cc0e6-7fff-b275-e923-e44bcb5f8ee7&quot;&gt;&lt;p style=&quot;line-height: 1.38; margin-top: 0pt; margin-bottom: 0pt;&quot; dir=&quot;ltr&quot;&gt;&lt;/p&gt;&lt;ul style=&quot;&quot;&gt;&lt;font style=&quot;font-size: 11px;&quot;&gt;&lt;li style=&quot;&quot;&gt;&lt;span style=&quot;font-family: Arial, sans-serif; font-variant-alternates: normal; font-variant-numeric: normal; font-variant-east-asian: normal; font-variant-position: normal; vertical-align: baseline; background-color: transparent;&quot;&gt;&lt;font style=&quot;&quot; color=&quot;#ffffff&quot;&gt;+ajouterCase(c : Case) : void&lt;/font&gt;&lt;/span&gt;&lt;/li&gt;&lt;li style=&quot;&quot;&gt;&lt;span style=&quot;font-family: Arial, sans-serif; font-variant-alternates: normal; font-variant-numeric: normal; font-variant-east-asian: normal; font-variant-position: normal; vertical-align: baseline; background-color: transparent;&quot;&gt;&lt;font color=&quot;#ffffff&quot;&gt;+getCase(i : int) : Case&lt;/font&gt;&lt;/span&gt;&lt;/li&gt;&lt;li style=&quot;&quot;&gt;&lt;span style=&quot;font-family: Arial, sans-serif; font-variant-alternates: normal; font-variant-numeric: normal; font-variant-east-asian: normal; font-variant-position: normal; vertical-align: baseline; background-color: transparent;&quot;&gt;&lt;font color=&quot;#ffffff&quot;&gt;+nbCases() : int&lt;/font&gt;&lt;/span&gt;&lt;/li&gt;&lt;li style=&quot;&quot;&gt;&lt;span style=&quot;font-family: Arial, sans-serif; font-variant-alternates: normal; font-variant-numeric: normal; font-variant-east-asian: normal; font-variant-position: normal; vertical-align: baseline; background-color: transparent;&quot;&gt;&lt;font color=&quot;#ffffff&quot;&gt;+createIterator() : PlateauIterator&lt;/font&gt;&lt;/span&gt;&lt;/li&gt;&lt;/font&gt;&lt;/ul&gt;&lt;p&gt;&lt;/p&gt;&lt;/span&gt;&lt;br style=&quot;caret-color: rgb(0, 0, 0); color: rgb(0, 0, 0); text-align: start;&quot; class=&quot;Apple-interchange-newline&quot;&gt;&lt;p style=&quot;font-size: 11px; text-align: start; caret-color: rgb(0, 0, 0); background-color: initial; line-height: 1.38; margin-top: 0pt; margin-bottom: 0pt;&quot; dir=&quot;ltr&quot;&gt;&lt;/p&gt;" style="rounded=0;whiteSpace=wrap;html=1;" parent="13" vertex="1">
                    <mxGeometry y="120" width="200" height="130" as="geometry"/>
                </mxCell>
                <mxCell id="30" value="" style="group" vertex="1" connectable="0" parent="1">
                    <mxGeometry x="110" y="310" width="200" height="200" as="geometry"/>
                </mxCell>
                <mxCell id="31" value="&lt;font color=&quot;#ffffff&quot; style=&quot;font-size: 12px;&quot;&gt;Atelier3.&lt;span style=&quot;caret-color: rgb(0, 0, 0); font-family: -webkit-standard; text-align: start;&quot;&gt;PlateauIterator&lt;/span&gt;&amp;nbsp;&amp;lt;&amp;lt; abstract&amp;nbsp;&amp;gt;&amp;gt;&lt;/font&gt;" style="rounded=0;whiteSpace=wrap;html=1;" vertex="1" parent="30">
                    <mxGeometry width="200" height="48" as="geometry"/>
                </mxCell>
                <mxCell id="32" value="" style="edgeStyle=none;html=1;fontColor=#FFFFFF;" edge="1" parent="30" source="33" target="34">
                    <mxGeometry relative="1" as="geometry"/>
                </mxCell>
                <mxCell id="33" value="&lt;span style=&quot;caret-color: rgb(0, 0, 0); text-align: start;&quot; id=&quot;docs-internal-guid-3d2f0bbc-7fff-59de-1f52-881cc61e7f1f&quot;&gt;&lt;font style=&quot;font-size: 12px;&quot; color=&quot;#ffffff&quot;&gt;&lt;div&gt;&lt;/div&gt;&lt;/font&gt;&lt;p style=&quot;background-color: initial; line-height: 1.38; margin-top: 0pt; margin-bottom: 0pt; display: inline !important;&quot; dir=&quot;ltr&quot;&gt;&lt;span style=&quot;background-color: transparent; font-variant-alternates: normal; font-variant-numeric: normal; font-variant-east-asian: normal; font-variant-position: normal; vertical-align: baseline;&quot;&gt;&lt;font style=&quot;font-size: 12px;&quot;&gt;&lt;font style=&quot;&quot; color=&quot;#ffffff&quot;&gt;-plateau : Plateau&lt;br&gt;&lt;/font&gt;&lt;span style=&quot;color: rgb(255, 255, 255); background-color: transparent;&quot;&gt;-position : int&lt;/span&gt;&lt;/font&gt;&lt;font style=&quot;font-family: Arial, sans-serif; font-size: 11pt;&quot; color=&quot;#ffffff&quot;&gt;&lt;br&gt;&lt;/font&gt;&lt;/span&gt;&lt;/p&gt;&lt;/span&gt;" style="rounded=0;whiteSpace=wrap;html=1;" vertex="1" parent="30">
                    <mxGeometry y="48.27" width="200" height="71.73" as="geometry"/>
                </mxCell>
                <mxCell id="34" value="&lt;span style=&quot;caret-color: rgb(0, 0, 0); text-align: start;&quot; id=&quot;docs-internal-guid-7a3cc0e6-7fff-b275-e923-e44bcb5f8ee7&quot;&gt;&lt;font style=&quot;font-size: 12px;&quot;&gt;&lt;font color=&quot;#ffffff&quot;&gt;&lt;p style=&quot;line-height: 1.38; margin-top: 0pt; margin-bottom: 0pt;&quot; dir=&quot;ltr&quot;&gt;&lt;/p&gt;&lt;/font&gt;&lt;p style=&quot;color: rgb(255, 255, 255); background-color: initial; line-height: 1.38; margin-top: 0pt; margin-bottom: 0pt;&quot; dir=&quot;ltr&quot;&gt;&lt;span style=&quot;background-color: transparent; font-family: Arial, sans-serif;&quot;&gt;+hasNext() : boolean&lt;/span&gt;&lt;br&gt;&lt;span style=&quot;background-color: transparent; font-family: Arial, sans-serif;&quot;&gt;+next() : Case&lt;/span&gt;&lt;/p&gt;&lt;/font&gt;&lt;/span&gt;&lt;br style=&quot;caret-color: rgb(0, 0, 0); color: rgb(0, 0, 0); text-align: start;&quot; class=&quot;Apple-interchange-newline&quot;&gt;&lt;p style=&quot;font-size: 11px; text-align: start; caret-color: rgb(0, 0, 0); background-color: initial; line-height: 1.38; margin-top: 0pt; margin-bottom: 0pt;&quot; dir=&quot;ltr&quot;&gt;&lt;/p&gt;" style="rounded=0;whiteSpace=wrap;html=1;" vertex="1" parent="30">
                    <mxGeometry y="120" width="200" height="80" as="geometry"/>
                </mxCell>
            </root>
        </mxGraphModel>
    </diagram>
</mxfile>